<svg id="Group_38071" data-name="Group 38071" xmlns="http://www.w3.org/2000/svg" width="78.462" height="12" viewBox="0 0 78.462 12">
  <path id="Path_18124" data-name="Path 18124" d="M384,4.213a35.337,35.337,0,0,1,11.885-.322,11.51,11.51,0,0,1,4.765,1.377,3.163,3.163,0,0,1,1.519,2.527c-2.69.059-5.379.029-8.068.021a4.306,4.306,0,0,0-3.269-1.375,9.486,9.486,0,0,0-4.681.809,4.914,4.914,0,0,0-2.6,3.21,1.532,1.532,0,0,0,.775,1.628,7.52,7.52,0,0,0,3.375.679,6.991,6.991,0,0,0,4.328-1.124c.126-.076.236-.221.4-.2q4.079-.015,8.159.007a8.976,8.976,0,0,1-3.478,2.435,20.505,20.505,0,0,1-5.078,1.288,40.707,40.707,0,0,1-5.771.364,26.607,26.607,0,0,1-7.763-.978,5.989,5.989,0,0,1-3.088-2.036,3.115,3.115,0,0,1-.306-3.019,6.555,6.555,0,0,1,2.685-2.881A19.988,19.988,0,0,1,384,4.213Z" transform="translate(-345.055 -3.542)" fill="#fff"/>
  <path id="Path_18125" data-name="Path 18125" d="M8.341,8.045C11.167,8,14,8.074,16.823,8.062c-.52,1.261-1.048,2.52-1.569,3.781,2.751.005,5.5-.01,8.254.008.538-1.257,1.04-2.534,1.579-3.79,2.905,0,5.81-.011,8.716,0Q31.437,13.675,29.086,19.3c-2.434.057-4.868.022-7.3.03a8.569,8.569,0,0,1-1.379-.053c.644-1.471,1.251-2.959,1.87-4.441H14c-.6,1.486-1.216,2.964-1.8,4.458-2.86.066-5.72.041-8.579.023C5.17,15.544,6.781,11.807,8.341,8.045Z" transform="translate(-3.62 -7.669)" fill="#fff"/>
  <path id="Path_18126" data-name="Path 18126" d="M712.271,8h8.766q-1.775,4.278-3.57,8.546,6.04,0,12.08.012-.574,1.368-1.148,2.735-10.415.009-20.829,0C709.118,15.519,710.7,11.762,712.271,8Z" transform="translate(-651.085 -7.642)" fill="#fff"/>
</svg>
