<svg xmlns="http://www.w3.org/2000/svg" width="110.885" height="20" viewBox="0 0 110.885 20">
  <g id="HCL_Logo_RGB_HCL_Tech_White_HCL_Tech" data-name="HCL – Logo – RGB – HCL Tech – White_HCL Tech" transform="translate(-45.07 -43.18)">
    <path id="Path_32210" data-name="Path 32210" d="M57.248,45.07v7.695H49.22V45.07H45.07V64.445h4.15v-8.11h8.028v8.11H61.4V45.07Z" transform="translate(0 -1.484)" fill="#fff"/>
    <path id="Path_32211" data-name="Path 32211" d="M229.125,60.844V45.07H224.97V60.9a3.188,3.188,0,0,0,3.544,3.544h9.44v-3.6Z" transform="translate(-141.233 -1.484)" fill="#fff"/>
    <path id="Path_32212" data-name="Path 32212" d="M285.37,45.07v3.57H291.1v15.8h4.151V48.64h5.73V45.07Z" transform="translate(-188.65 -1.484)" fill="#fff"/>
    <path id="Path_32213" data-name="Path 32213" d="M359.314,78.716c-.307,1.191-1.331,1.8-2.878,1.8a3.346,3.346,0,0,1-3.458-3.183h10.016c.03-.3.058-.718.058-1.244a6.5,6.5,0,0,0-6.891-6.807c-4.735,0-6.891,3.624-6.891,7.168a7,7,0,0,0,7.168,7.222c3.433,0,6.087-1.937,6.642-4.954h-3.766ZM356.159,72.1a2.886,2.886,0,0,1,3.043,2.8h-6.173C353.365,72.958,354.416,72.1,356.159,72.1Z" transform="translate(-238.816 -20.49)" fill="#fff"/>
    <path id="Path_32214" data-name="Path 32214" d="M433.512,78.247a2.774,2.774,0,0,1-2.82,2.1c-2.1,0-3.347-1.606-3.347-3.873s1.214-3.9,3.293-3.9a2.773,2.773,0,0,1,2.82,2.156h3.873c-.249-3.237-3.155-5.451-6.807-5.451a7.194,7.194,0,0,0,0,14.388c3.624,0,6.5-2.326,6.919-5.423h-3.931Z" transform="translate(-296.958 -20.49)" fill="#fff"/>
    <path id="Path_32215" data-name="Path 32215" d="M507.26,50.274A4.734,4.734,0,0,0,503,52.429V45.07H499.15V64.445H503V56.8a2.882,2.882,0,0,1,2.878-3.1,2.7,2.7,0,0,1,2.713,2.906v7.832h3.847v-8.69C512.435,52.541,510.387,50.274,507.26,50.274Z" transform="translate(-356.481 -1.484)" fill="#fff"/>
    <path id="Path_32216" data-name="Path 32216" d="M133.17,53.069c0-6.519,4.213-9.889,9.019-9.889,4.522,0,7.837,2.762,8.325,6.934h-4.034a4.039,4.039,0,0,0-4.29-3.37c-2.9,0-5.139,2.182-5.139,6.326s2.235,6.3,5.139,6.3a4.149,4.149,0,0,0,4.393-3.342h3.854c-.333,4.144-3.647,6.934-8.247,6.934C137.305,62.959,133.17,59.588,133.17,53.069Z" transform="translate(-69.164 0)" fill="#fff"/>
  </g>
</svg>
